<?xml version="1.0" encoding="utf-8"?>
<!-- Generator: Adobe Illustrator 22.1.0, SVG Export Plug-In . SVG Version: 6.00 Build 0)  -->
<svg version="1.1" id="Layer_1" xmlns="http://www.w3.org/2000/svg" xmlns:xlink="http://www.w3.org/1999/xlink" x="0px" y="0px"
	 viewBox="0 0 612 133" style="enable-background:new 0 0 612 133;" xml:space="preserve">
<g>
	<g>
		<path d="M161.8,68.3c0-4.8-0.2-5.7-2.2-5.9l-1.6-0.2c-0.4-0.3-0.4-1.1,0.1-1.3c2.8-0.3,6.3-0.4,11.2-0.4c3.1,0,6.1,0.3,8.4,1.5
			c2.4,1.3,4.2,3.5,4.2,7.1c0,4.8-3.8,7.4-6.3,8.4c-0.3,0.3,0,0.8,0.3,1.2c4,6.5,6.7,10.5,10.1,13.4c0.9,0.8,2.1,1.3,3.5,1.4
			c0.3,0.1,0.3,0.5,0.1,0.7c-0.5,0.2-1.3,0.3-2.2,0.3c-4.3,0-6.9-1.3-10.4-6.4c-1.3-1.9-3.4-5.4-4.9-7.6c-0.8-1.1-1.6-1.6-3.6-1.6
			c-2.3,0-2.4,0.1-2.4,1.1v6.4c0,5.3,0.1,5.9,3,6.3l1.1,0.2c0.3,0.3,0.2,1.1-0.1,1.3c-2.3-0.1-4-0.2-6-0.2c-2.1,0-3.9,0.1-6.3,0.2
			c-0.3-0.2-0.4-0.9-0.1-1.3l1.3-0.2c2.9-0.4,3-1,3-6.3V68.3H161.8z M165.9,75.6c0,0.9,0,1.5,0.2,1.7s0.9,0.3,3.5,0.3
			c1.8,0,3.7-0.2,5.2-1.3c1.4-1.1,2.5-2.8,2.5-6.3c0-4-2.5-7.8-8.1-7.8c-3.1,0-3.3,0.2-3.3,1.6L165.9,75.6L165.9,75.6z"/>
		<path d="M199.4,68.3c0-5.3-0.1-6-3.1-6.4l-0.8-0.1c-0.3-0.2-0.2-1.1,0.1-1.3c2.2,0.1,3.9,0.2,6,0.2h9.5c3.2,0,6.2,0,6.8-0.2
			c0.3,0.9,0.6,4.5,0.8,6.7c-0.2,0.3-1,0.4-1.3,0.1c-0.8-2.4-1.2-4.1-3.8-4.8c-1.1-0.3-2.7-0.3-4.9-0.3H205c-1.5,0-1.5,0.1-1.5,2
			v10.1c0,1.4,0.2,1.4,1.7,1.4h2.9c2.1,0,3.7-0.1,4.3-0.3c0.6-0.2,1-0.5,1.2-1.8l0.4-2.1c0.3-0.3,1.1-0.3,1.3,0.1
			c0,1.2-0.2,3.2-0.2,5.1c0,1.8,0.2,3.7,0.2,4.8c-0.2,0.4-1.1,0.4-1.3,0.1l-0.5-2c-0.2-0.9-0.6-1.7-1.6-1.9
			c-0.7-0.2-1.9-0.3-3.9-0.3h-2.9c-1.5,0-1.7,0.1-1.7,1.4v7.1c0,2.7,0.2,4.4,1,5.3c0.6,0.6,1.7,1.2,6.1,1.2c3.9,0,5.4-0.2,6.5-0.8
			c0.9-0.5,2.3-2.3,3.6-4.9c0.4-0.3,1.1-0.1,1.3,0.4c-0.4,1.8-1.6,5.7-2.3,7c-4.5-0.1-9-0.2-13.5-0.2h-4.5c-2.2,0-3.9,0.1-6.9,0.2
			c-0.3-0.2-0.4-1-0.1-1.3l1.7-0.2c2.9-0.3,3.1-1,3.1-6.3L199.4,68.3L199.4,68.3z"/>
		<path d="M260.1,88.9c0,2,0.3,3.2,1.2,3.6c0.2,0.2,0.2,0.5,0,0.6c-0.6,0-1.5,0.2-2.5,0.5c-2.7,0.7-6.3,1.3-9,1.3
			c-6,0-11.5-1.7-15.4-5.6c-3-3-4.6-7-4.6-11.5c0-4.3,1.4-8.6,4.5-12c3.4-3.5,8.4-5.9,16-5.9c2.9,0,5.6,0.6,6.4,0.8
			c1,0.2,2.5,0.6,3.1,0.5c0,1.7,0.3,4.3,0.8,7.3c-0.2,0.4-1.1,0.5-1.4,0.2c-1.4-5.5-5.2-7.2-10.3-7.2c-9.8,0-14.1,7-14.1,14.5
			c0,9.7,5,17.3,15.1,17.3c3.1,0,5-0.7,5.6-1.5c0.3-0.4,0.5-1.3,0.5-2.9v-2c0-4.2-0.2-4.5-3.3-4.9l-2.2-0.3c-0.4-0.2-0.4-1.1,0-1.3
			c1.5,0.1,4.2,0.2,7.2,0.2c2,0,3.7-0.1,5.3-0.2c0.4,0.2,0.4,1,0.1,1.3l-0.8,0.1c-2.1,0.3-2.2,1.7-2.2,4.2V88.9z"/>
		<path d="M276.6,68.3c0-5.3-0.1-6-3.1-6.4l-0.8-0.1c-0.3-0.2-0.2-1.1,0.1-1.3c2.2,0.1,3.9,0.2,6,0.2h9.5c3.2,0,6.2,0,6.8-0.2
			c0.3,0.9,0.6,4.5,0.8,6.7c-0.2,0.3-1,0.4-1.3,0.1c-0.8-2.4-1.2-4.1-3.8-4.8c-1.1-0.3-2.7-0.3-4.9-0.3h-3.6c-1.5,0-1.5,0.1-1.5,2
			v10.1c0,1.4,0.2,1.4,1.7,1.4h2.9c2.1,0,3.7-0.1,4.3-0.3c0.6-0.2,1-0.5,1.2-1.8l0.4-2.1c0.3-0.3,1.1-0.3,1.3,0.1
			c0,1.2-0.2,3.2-0.2,5.1c0,1.8,0.2,3.7,0.2,4.8c-0.2,0.4-1.1,0.4-1.3,0.1l-0.5-2c-0.2-0.9-0.6-1.7-1.6-1.9
			c-0.7-0.2-1.9-0.3-3.9-0.3h-2.9c-1.5,0-1.7,0.1-1.7,1.4v7.1c0,2.7,0.2,4.4,1,5.3c0.6,0.6,1.7,1.2,6.1,1.2c3.9,0,5.3-0.2,6.5-0.8
			c0.9-0.5,2.3-2.3,3.6-4.9c0.4-0.3,1.1-0.1,1.3,0.4c-0.4,1.8-1.6,5.7-2.3,7c-4.5-0.1-9-0.2-13.5-0.2h-4.5c-2.2,0-3.9,0.1-6.9,0.2
			c-0.3-0.2-0.4-1-0.1-1.3l1.7-0.2c2.9-0.3,3.1-1,3.1-6.3v-18L276.6,68.3L276.6,68.3z"/>
		<path d="M311.1,68.3c0-5.3-0.1-6-3.1-6.4l-0.8-0.1c-0.3-0.2-0.2-1.1,0.1-1.3c2.2,0.1,3.9,0.2,6,0.2h9.5c3.2,0,6.2,0,6.8-0.2
			c0.3,0.9,0.6,4.5,0.8,6.7c-0.2,0.3-1,0.4-1.3,0.1c-0.8-2.4-1.2-4.1-3.8-4.8c-1.1-0.3-2.7-0.3-4.9-0.3h-3.6c-1.5,0-1.5,0.1-1.5,2
			v10.1c0,1.4,0.2,1.4,1.7,1.4h2.9c2.1,0,3.7-0.1,4.3-0.3c0.6-0.2,1-0.5,1.2-1.8l0.4-2.1c0.3-0.3,1.1-0.3,1.3,0.1
			c0,1.2-0.2,3.2-0.2,5.1c0,1.8,0.2,3.7,0.2,4.8c-0.2,0.4-1.1,0.4-1.3,0.1l-0.5-2c-0.2-0.9-0.6-1.7-1.6-1.9
			c-0.7-0.2-1.9-0.3-3.9-0.3h-2.9c-1.5,0-1.7,0.1-1.7,1.4v7.1c0,2.7,0.2,4.4,1,5.3c0.6,0.6,1.7,1.2,6.1,1.2c3.9,0,5.3-0.2,6.5-0.8
			c0.9-0.5,2.3-2.3,3.6-4.9c0.4-0.3,1.1-0.1,1.3,0.4c-0.4,1.8-1.6,5.7-2.3,7c-4.5-0.1-9-0.2-13.5-0.2h-4.5c-2.2,0-3.9,0.1-6.9,0.2
			c-0.3-0.2-0.4-1-0.1-1.3l1.7-0.2c2.9-0.3,3.1-1,3.1-6.3v-18L311.1,68.3L311.1,68.3z"/>
		<path d="M372.8,85.4c0,1.5,0,7.5,0.1,8.8c-0.1,0.3-0.4,0.6-1,0.6c-0.6-0.9-2.1-2.6-6.5-7.6l-11.6-13.3c-1.4-1.6-4.8-5.7-5.9-6.8
			h-0.1c-0.2,0.6-0.3,1.8-0.3,3.3v11c0,2.4,0.1,8.9,0.9,10.4c0.3,0.6,1.3,0.9,2.6,1l1.6,0.2c0.3,0.4,0.3,1-0.1,1.3
			c-2.3-0.1-4-0.2-5.9-0.2c-2.1,0-3.5,0.1-5.2,0.2c-0.4-0.3-0.4-1-0.1-1.3l1.4-0.2c1.2-0.2,2-0.5,2.2-1c0.7-1.8,0.7-8,0.7-10.4V66.8
			c0-1.4-0.1-2.5-1.1-3.6c-0.7-0.7-1.9-1.1-3.1-1.2l-0.9-0.1c-0.3-0.3-0.3-1.1,0.1-1.3c2.1,0.2,4.8,0.2,5.7,0.2
			c0.8,0,1.7-0.1,2.3-0.2c1,2.6,7,9.2,8.6,11.1l4.9,5.5c3.5,3.9,6,6.7,8.3,9.1h0.1c0.2-0.3,0.2-1.1,0.2-2.1V73.4
			c0-2.4-0.1-8.9-1-10.4c-0.3-0.5-1.1-0.8-3.1-1l-0.9-0.1c-0.4-0.3-0.3-1.1,0.1-1.3c2.3,0.1,4,0.2,6,0.2c2.2,0,3.5-0.1,5.2-0.2
			c0.4,0.3,0.4,1,0.1,1.3l-0.7,0.1c-1.6,0.3-2.6,0.7-2.8,1.1c-0.9,1.8-0.8,8.1-0.8,10.4L372.8,85.4L372.8,85.4z"/>
		<path d="M404.3,82.3c-0.4-1.1-0.6-1.3-2.1-1.3h-7.6c-1.3,0-1.6,0.2-1.9,1.2l-1.8,5.3c-0.8,2.3-1.1,3.6-1.1,4.2s0.3,0.9,1.5,1
			l1.7,0.2c0.4,0.3,0.4,1.1-0.1,1.3c-1.3-0.1-2.9-0.1-5.2-0.2c-1.7,0-3.5,0.1-4.8,0.2c-0.3-0.2-0.4-1-0.1-1.3l1.7-0.2
			c1.2-0.1,2.3-0.7,3-2.5c0.9-2.3,2.3-5.6,4.4-11.3l5.1-13.6c0.7-1.8,1-2.8,0.9-3.6c1.2-0.4,2.1-1.3,2.6-1.9c0.3,0,0.7,0.1,0.8,0.5
			c0.7,2.2,1.5,4.5,2.2,6.8l6.9,20.3c1.5,4.3,2.1,5.1,4.3,5.3l1.4,0.2c0.4,0.3,0.3,1.1,0,1.3c-2.1-0.1-3.8-0.2-6.1-0.2
			c-2.4,0-4.3,0.1-5.8,0.2c-0.4-0.2-0.5-1-0.1-1.3l1.5-0.2c1.1-0.1,1.8-0.4,1.8-0.9c0-0.6-0.3-1.5-0.7-2.7L404.3,82.3z M394.3,77.8
			c-0.4,1.2-0.4,1.2,1.1,1.2h6.2c1.5,0,1.6-0.2,1.1-1.6l-2.7-8.2c-0.4-1.2-0.9-2.6-1.2-3.2h-0.1c-0.2,0.3-0.7,1.5-1.2,3L394.3,77.8z
			"/>
		<path d="M424.8,63.5c0,3.5-2.7,5.9-5.9,6.9c-0.4-0.2-0.6-0.7-0.4-1.1c1.9-0.9,3.8-2.3,3.8-4.3c0-1.9-1.6-2.8-2.5-2.8
			c-0.7-0.1-1.4-0.5-1.4-1.4c0-0.8,0.5-2.1,2.4-2.1C422.9,58.7,424.8,60.9,424.8,63.5z"/>
		<path d="M443.9,94.8c-4.2,0-6.9-1.3-7.9-1.9c-0.6-1.1-1.3-4.7-1.4-7.1c0.3-0.4,1-0.5,1.2-0.2c0.8,2.6,2.8,7.5,8.7,7.5
			c4.2,0,6.3-2.8,6.3-5.8c0-2.2-0.5-4.7-4.1-7.1l-4.8-3.1c-2.5-1.7-5.4-4.5-5.4-8.7c0-4.8,3.7-8.7,10.3-8.7c1.6,0,3.4,0.3,4.7,0.7
			c0.7,0.2,1.4,0.3,1.8,0.3c0.5,1.2,0.9,4,0.9,6.2c-0.2,0.3-1,0.5-1.3,0.2c-0.7-2.4-2-5.7-6.9-5.7s-6,3.3-6,5.6c0,2.9,2.4,5,4.3,6.2
			l4,2.5c3.2,2,6.3,4.9,6.3,9.7C454.6,91,450.4,94.8,443.9,94.8z"/>
	</g>
	<g>
		<path d="M198.5,108.6h8.5v1.2h-7.2v4.2h6.4v1.2h-6.4v5.2h-1.3V108.6z"/>
		<path d="M212.1,108.6h1.3v10.6h6.7v1.2h-8V108.6z"/>
		<path d="M223.9,114.6L223.9,114.6c0-3.3,2.4-6.1,6-6.1s6,2.8,6,6.1l0,0c0,3.3-2.4,6.1-6,6.1C226.3,120.7,223.9,117.8,223.9,114.6z
			 M234.6,114.6L234.6,114.6c0-2.7-2-4.9-4.7-4.9s-4.6,2.2-4.6,4.8l0,0c0,2.7,2,4.9,4.7,4.9C232.6,119.4,234.6,117.3,234.6,114.6z"
			/>
		<path d="M239.8,108.6h1.5l3.4,9.8l3.2-9.9h1.1l3.2,9.9l3.4-9.8h1.4l-4.2,11.9h-1.1l-3.2-9.6l-3.3,9.6H244L239.8,108.6z"/>
		<path d="M261.9,108.6h8.5v1.2h-7.2v4h6.4v1.2h-6.4v4.1h7.3v1.2h-8.6L261.9,108.6L261.9,108.6z"/>
		<path d="M275.8,108.6h5.1c1.5,0,2.6,0.4,3.4,1.2c0.6,0.6,0.9,1.4,0.9,2.3l0,0c0,2-1.3,3.1-3.2,3.4l3.6,4.8H284l-3.4-4.6l0,0h-3.3
			v4.6H276v-11.7C276,108.6,275.8,108.6,275.8,108.6z M280.7,114.7c1.8,0,3-0.9,3-2.4l0,0c0-1.4-1.1-2.3-3-2.3H277v4.8L280.7,114.7
			L280.7,114.7z"/>
		<path d="M289.7,118.7l0.8-1c1.2,1.1,2.4,1.7,4.1,1.7c1.6,0,2.6-0.8,2.6-2l0,0c0-1.1-0.6-1.7-3.1-2.2c-2.7-0.6-4-1.5-4-3.4l0,0
			c0-1.9,1.6-3.2,3.9-3.2c1.7,0,3,0.5,4.2,1.5l-0.8,1c-1.1-0.9-2.2-1.3-3.4-1.3c-1.5,0-2.5,0.8-2.5,1.9l0,0c0,1.1,0.6,1.7,3.2,2.3
			c2.6,0.6,3.9,1.5,3.9,3.3l0,0c0,2-1.7,3.3-4,3.3C292.7,120.6,291.2,120,289.7,118.7z"/>
		<path d="M318.1,118.8c-1.1,1.2-2.3,1.8-3.9,1.8c-2.1,0-3.7-1.3-3.7-3.3l0,0c0-1.6,1-2.7,2.9-3.4c-0.8-0.9-1.2-1.7-1.2-2.6l0,0
			c0-1.6,1.2-2.8,3.1-2.8c1.7,0,2.9,1.2,2.9,2.7l0,0c0,1.5-1.1,2.5-2.8,3.1l2.7,2.8c0.5-0.8,1-1.7,1.4-2.6l1.1,0.5
			c-0.5,1.1-1.1,2.1-1.7,3l2.1,2.1l-1,0.8L318.1,118.8z M317.3,118l-3.2-3.3c-1.6,0.6-2.3,1.5-2.3,2.5l0,0c0,1.3,1,2.2,2.5,2.2
			C315.5,119.5,316.5,118.9,317.3,118z M317,111.2L317,111.2c0-1-0.7-1.7-1.7-1.7c-1.1,0-1.8,0.7-1.8,1.7l0,0c0,0.7,0.3,1.2,1.2,2.2
			C316.2,112.9,317,112.2,317,111.2z"/>
		<path d="M333.4,108.6h8.5v1.2h-7.2v4h6.4v1.2h-6.4v4.1h7.3v1.2h-8.6L333.4,108.6L333.4,108.6z"/>
		<path d="M346.2,108.6h1.5l4.2,10.2l4.2-10.2h1.4l-5.1,11.9h-1.2L346.2,108.6z"/>
		<path d="M362.4,108.6h8.5v1.2h-7.2v4h6.4v1.2h-6.4v4.1h7.3v1.2h-8.6L362.4,108.6L362.4,108.6z"/>
		<path d="M376.3,108.6h1.3l7.4,9.5v-9.5h1.3v11.8h-1.1l-7.6-9.7v9.7h-1.3L376.3,108.6L376.3,108.6z"/>
		<path d="M395.3,109.9h-4v-1.2h9.3v1.2h-4v10.6h-1.3V109.9z"/>
		<path d="M404.6,118.7l0.8-1c1.2,1.1,2.4,1.7,4,1.7s2.6-0.8,2.6-2l0,0c0-1.1-0.6-1.7-3.1-2.2c-2.7-0.6-4-1.5-4-3.4l0,0
			c0-1.9,1.6-3.2,3.9-3.2c1.7,0,3,0.5,4.2,1.5l-0.8,1c-1.1-0.9-2.2-1.3-3.4-1.3c-1.5,0-2.5,0.8-2.5,1.9l0,0c0,1.1,0.6,1.7,3.2,2.3
			c2.6,0.6,3.8,1.5,3.8,3.3l0,0c0,2-1.7,3.3-4,3.3C407.5,120.6,406,120,404.6,118.7z"/>
	</g>
</g>
</svg>
