<?xml version="1.0" encoding="utf-8"?>
<!-- Generator: Adobe Illustrator 22.1.0, SVG Export Plug-In . SVG Version: 6.00 Build 0)  -->
<svg version="1.1" id="Layer_1" xmlns="http://www.w3.org/2000/svg" xmlns:xlink="http://www.w3.org/1999/xlink" x="0px" y="0px"
	 viewBox="0 0 612 176.8" style="enable-background:new 0 0 612 176.8;" xml:space="preserve">
<g>
	<g>
		<path d="M83.9,88.5v-0.1c0-14.6,10.9-26.7,26.1-26.7c9.4,0,15,3.3,20.1,8.2l-4,4.3c-4.4-4.1-9.2-7.1-16.2-7.1
			c-11.4,0-20,9.3-20,21.2v0.1c0,12,8.6,21.3,20,21.3c7.1,0,11.7-2.7,16.7-7.5l3.8,3.8c-5.4,5.5-11.3,9.1-20.7,9.1
			C94.9,115.1,83.9,103.4,83.9,88.5z"/>
		<path d="M141,106.7l3.6-4.3c5.4,4.9,10.5,7.3,17.7,7.3c6.9,0,11.5-3.7,11.5-8.8v-0.1c0-4.8-2.6-7.5-13.4-9.8
			c-11.9-2.6-17.3-6.4-17.3-14.9V76c0-8.1,7.2-14.1,17-14.1c7.5,0,12.9,2.1,18.2,6.3l-3.4,4.5c-4.8-3.9-9.6-5.6-14.9-5.6
			c-6.7,0-11,3.7-11,8.3v0.1c0,4.9,2.7,7.6,14,10c11.5,2.5,16.8,6.7,16.8,14.6v0.1c0,8.9-7.4,14.6-17.6,14.6
			C153.9,115,147.2,112.2,141,106.7z"/>
	</g>
	<g>
		<path d="M418.6,88.5v-0.1c0-14.6,10.9-26.7,26.1-26.7c9.4,0,15,3.3,20.1,8.2l-4,4.3c-4.4-4.1-9.2-7.1-16.2-7.1
			c-11.4,0-20,9.3-20,21.2v0.1c0,12,8.6,21.3,20,21.3c7.1,0,11.7-2.7,16.7-7.5l3.8,3.8c-5.4,5.5-11.3,9.1-20.7,9.1
			C429.6,115.1,418.6,103.4,418.6,88.5z"/>
		<path d="M475.3,88.5v-0.1c0-14.2,10.7-26.7,26.4-26.7S528,74,528,88.3c0.1,0.1,0.1,0.1,0,0.1c0,14.2-10.7,26.7-26.4,26.7
			C485.8,115.1,475.3,102.8,475.3,88.5z M521.9,88.5v-0.1c0-11.7-8.6-21.3-20.4-21.3c-11.8,0-20.2,9.4-20.2,21.2v0.1
			c0,11.7,8.6,21.3,20.4,21.3C513.5,109.7,521.9,100.3,521.9,88.5z"/>
	</g>
	<path d="M196.1,69.3h14.3c8.6,0,14.3,4.6,14.3,12.1v0.1c0,8.2-6.9,12.5-15,12.5h-9.2v13.4h-4.3V69.3H196.1z M209.8,90
		c6.3,0,10.4-3.4,10.4-8.4v-0.1c0-5.4-4.1-8.3-10.2-8.3h-9.6V90H209.8z"/>
	<path d="M238.8,88.5v-0.1c0-10.5,7.9-19.7,19.5-19.7c11.6,0,19.4,9.1,19.4,19.6c0.1,0.1,0.1,0.1,0,0.1c0,10.5-7.9,19.7-19.5,19.7
		C246.6,108,238.8,99,238.8,88.5z M273.2,88.5v-0.1c0-8.7-6.3-15.7-15-15.7c-8.7,0-14.9,7-14.9,15.6v0.1c0,8.7,6.3,15.7,15,15.7
		C267,104.1,273.2,97.1,273.2,88.5z"/>
	<path d="M292,101.8l2.7-3.2c4,3.6,7.8,5.4,13.1,5.4c5.1,0,8.5-2.7,8.5-6.5v-0.1c0-3.5-1.9-5.5-9.9-7.2c-8.8-1.9-12.8-4.7-12.8-11
		v-0.1c0-6,5.3-10.4,12.5-10.4c5.6,0,9.5,1.6,13.4,4.7l-2.5,3.3c-3.5-2.9-7.1-4.1-11-4.1c-5,0-8.1,2.7-8.1,6.2v0.1
		c0,3.6,2,5.6,10.3,7.4c8.5,1.8,12.4,5,12.4,10.8v0.1c0,6.5-5.4,10.8-13,10.8C301.5,107.9,296.6,105.9,292,101.8z"/>
	<path d="M346.7,73.3h-12.8v-4h29.9v4H351v34.1h-4.4V73.3H346.7z"/>
	<path d="M398,102c-3.5,3.8-7.5,5.9-12.5,5.9c-6.9,0-12-4.3-12-10.7v-0.1c0-5.1,3.4-8.7,9.2-11c-2.6-3-3.8-5.4-3.8-8.4v-0.1
		c0-5,4-9,10.1-9c5.3,0,9.3,3.9,9.3,8.6v0.1c0,4.8-3.4,7.9-9,9.9l8.7,8.9c1.7-2.4,3.2-5.3,4.6-8.5l3.5,1.6c-1.7,3.6-3.4,6.9-5.5,9.6
		l6.6,6.8l-3.3,2.5L398,102z M395.4,99.3l-10.2-10.5c-5.1,1.9-7.3,5-7.3,8.2v0.1c0,4.1,3.3,7.2,7.9,7.2
		C389.4,104.3,392.6,102.4,395.4,99.3z M394.2,77.6v-0.1c0-3-2.3-5.3-5.4-5.3c-3.4,0-5.8,2.4-5.8,5.5v0.1c0,2.2,0.9,3.9,3.8,7
		C391.7,83.2,394.2,80.8,394.2,77.6z"/>
</g>
</svg>
